v 0.00000 0.00000 0.00000
v 2.00000 0.00000 0.00000
v 2.00000 2.00000 0.00000
v 0.00000 2.00000 0.00000
v 0.00000 0.00000 -2.00000
v 2.00000 0.00000 -2.00000
v 2.00000 2.00000 -2.00000
v 0.00000 2.00000 -2.00000
v -0.60000 1.00000 -1.00000
v 1.00000 -0.60000 -1.00000
v 2.60000 1.00000 -1.00000
v 1.00000 2.60000 -1.00000
v 1.00000 1.00000 0.60000
v 1.00000 1.00000 -2.60000
# 14 verticies
vn -0.70711 0.00000 0.70711
vn -0.51450 0.00000 0.85749
vn 0.00000 0.70711 0.70711
vn 0.00000 0.51450 0.85749
vn 0.70711 0.00000 0.70711
vn 0.51450 0.00000 0.85749
vn 0.00000 -0.70711 0.70711
vn 0.00000 -0.51450 0.85749
vn -0.85749 0.00000 0.51450
vn -0.70711 0.70711 0.00000
vn -0.85749 0.51450 0.00000
vn -0.70711 0.00000 -0.70711
vn -0.85749 0.00000 -0.51450
vn -0.70711 -0.70711 0.00000
vn -0.85749 -0.51450 0.00000
vn 0.00000 -0.70711 -0.70711
vn 0.00000 -0.51450 -0.85749
vn -0.51450 0.00000 -0.85749
vn 0.00000 0.70711 -0.70711
vn 0.00000 0.51450 -0.85749
vn 0.70711 0.00000 -0.70711
vn 0.51450 0.00000 -0.85749
vn 0.70711 0.70711 0.00000
vn 0.85749 0.51450 0.00000
vn 0.85749 0.00000 0.51450
vn 0.70711 -0.70711 0.00000
vn 0.85749 -0.51450 0.00000
vn 0.85749 0.00000 -0.51450
vn 0.00000 0.85749 0.51450
vn -0.51450 0.85749 0.00000
vn 0.00000 0.85749 -0.51450
vn 0.51450 0.85749 0.00000
vn 0.00000 -0.85749 0.51450
vn 0.51450 -0.85749 0.00000
vn 0.00000 -0.85749 -0.51450
vn -0.51450 -0.85749 0.00000
f  1//1 13//2 4//1
f  4//3 13//4 3//3
f  3//5 13//6 2//5
f  2//7 13//8 1//7
f  4//1 9//9 1//1
f  8//10 9//11 4//10
f  5//12 9//13 8//12
f  1//14 9//15 5//14
f  5//16 14//17 6//16
f  8//12 14//18 5//12
f  7//19 14//20 8//19
f  6//21 14//22 7//21
f  3//23 11//24 7//23
f  2//5 11//25 3//5
f  6//26 11//27 2//26
f  7//21 11//28 6//21
f  3//3 12//29 4//3
f  4//10 12//30 8//10
f  8//19 12//31 7//19
f  7//23 12//32 3//23
f  1//7 10//33 2//7
f  2//26 10//34 6//26
f  6//16 10//35 5//16
f  5//14 10//36 1//14
